<?xml version="1.0" encoding="UTF-8"?>
<svg width="281px" height="84px" viewBox="0 0 281 84" version="1.1" xmlns="http://www.w3.org/2000/svg" xmlns:xlink="http://www.w3.org/1999/xlink">
    <!-- Generator: Sketch 55 (78076) - https://sketchapp.com -->
    <title>image (2)</title>
    <desc>Created with Sketch.</desc>
    <g id="Page-1" stroke="none" stroke-width="1" fill="none" fill-rule="evenodd">
        <g id="image-(2)" fill-rule="nonzero">
            <polygon id="Path" fill="#676666" points="124.1 8.8 146 9 153.3 12.7"></polygon>
            <polygon id="Path" fill="#6C6C6B" points="125.8 19.1 132.7 26 143.8 25"></polygon>
            <polygon id="Path" fill="#232424" points="44.6 6.6 44.9 8 47.3 12.9"></polygon>
            <polygon id="Path" fill="#A46449" points="239.1 25 277.3 35.3 279 23.1"></polygon>
            <polygon id="Path" fill="#8F8F8F" points="57.2 11.9 63 13.1 67 11.1"></polygon>
            <polygon id="Path" fill="#343434" points="175.2 30.5 183.1 23.2 191.9 31"></polygon>
            <polygon id="Path" fill="#947163" points="94.9 8.9 100.9 11.7 110 1.1"></polygon>
            <polygon id="Path" fill="#CCA297" points="226.5 20 231.9 18 238.3 17"></polygon>
            <polygon id="Path" fill="#894D39" points="216.4 33.1 239.1 25 242.2 40.9"></polygon>
            <polygon id="Path" fill="#89827B" points="148.8 21 155.7 22 165.7 17.6"></polygon>
            <polygon id="Path" fill="#797878" points="146 9 153.3 12.7 199.8 11"></polygon>
            <polygon id="Path" fill="#7C7B7A" points="148 53 150.8 48 155 33.3"></polygon>
            <polygon id="Path" fill="#6C554C" points="191.9 31 197 32 201.1 29.6"></polygon>
            <polygon id="Path" fill="#D0A999" points="92.6 14 96.9 14.9 100.9 11.7"></polygon>
            <polygon id="Path" fill="#AB6648" points="183.9 40.1 188.9 55.2 197.9 43.1"></polygon>
            <polygon id="Path" fill="#A45D3D" points="97.6 23 100.9 11.7 102.9 24.1"></polygon>
            <polygon id="Path" fill="#8F8D8E" points="11.8 12 12 9 15.2 15"></polygon>
            <polygon id="Path" fill="#BB7A5C" points="69.7 4.2 74.4 12.1 88.1 11"></polygon>
            <polygon id="Path" fill="#4F4242" points="62.7 18 70 22.1 71.2 23.9"></polygon>
            <polygon id="Path" fill="#393B3A" points="3.5 15 4.7 20 7.4 22"></polygon>
            <polygon id="Path" fill="#848686" points="33 15 34.9 15.9 42 11.9"></polygon>
            <polygon id="Path" fill="#B06543" points="183.9 40.1 191.9 31 197.9 43.1"></polygon>
            <polygon id="Path" fill="#99756B" points="201.1 29.6 213.9 34.1 216.4 33.1"></polygon>
            <polygon id="Path" fill="#373D3F" points="15.2 15 15.7 18.8 34.9 15.9"></polygon>
            <polygon id="Path" fill="#616363" points="47.5 19.1 60.5 20 62.7 18"></polygon>
            <polygon id="Path" fill="#986B5C" points="102.9 24.1 113.1 28.8 115.7 27"></polygon>
            <polygon id="Path" fill="#B4B2B2" points="110 1.1 122.9 2 123.9 5.1"></polygon>
            <polygon id="Path" fill="#363635" points="155 26.9 162.3 28 176.5 25.1"></polygon>
            <polygon id="Path" fill="#43484A" points="47.3 12.9 47.5 19.1 47.9 15.3"></polygon>
            <polygon id="Path" fill="#9A9A9A" points="126 7 128.3 5 157.9 4.9"></polygon>
            <polygon id="Path" fill="#4D4B4C" points="123.9 5.1 125.9 0.9 126 7"></polygon>
            <polygon id="Path" fill="#313031" points="6.2 8 9.9 2.1 12 9"></polygon>
            <polygon id="Path" fill="#4F3D34" points="67 11.1 69.7 4.2 70 22.1"></polygon>
            <polygon id="Path" fill="#B3B2B3" points="45.1 22.8 47.5 19.1 68.1 23"></polygon>
            <polygon id="Path" fill="#3F3F3B" points="110.9 72.1 112 72.1 119.8 58"></polygon>
            <polygon id="Path" fill="#855243" points="242.2 40.9 275.7 53.9 277.3 35.3"></polygon>
            <polygon id="Path" fill="#A66647" points="79.3 14 88.1 11 92.6 14"></polygon>
            <polygon id="Path" fill="#DCC8BC" points="247.8 19 261.8 19.6 279 23.1"></polygon>
            <polygon id="Path" fill="#AA725A" points="191.9 31 195.9 37.3 197.9 43.1"></polygon>
            <polygon id="Path" fill="#3C3C3A" points="112 72.1 126 76.2 133 73.9"></polygon>
            <polygon id="Path" fill="#C0A39C" points="279 23.1 279.1 22.1 280.9 24"></polygon>
            <polygon id="Path" fill="#D2D2D2" points="47.5 19.1 60.5 20 68.1 23"></polygon>
            <polygon id="Path" fill="#878787" points="157.9 4.9 165.5 7.5 194.1 6.2"></polygon>
            <polygon id="Path" fill="#464443" points="62.7 18 67 11.1 70 22.1"></polygon>
            <polygon id="Path" fill="#F7E7E4" points="69.7 4.2 94.5 4.9 110 1.1"></polygon>
            <polygon id="Path" fill="#A65F3F" points="70 22.1 74.4 12.1 79.3 14"></polygon>
            <polygon id="Path" fill="#565859" points="15.7 18.8 41.8 20 47.5 19.1"></polygon>
            <polygon id="Path" fill="#41403E" points="165.7 17.6 184.9 18 199.8 11"></polygon>
            <polygon id="Path" fill="#3D3F3E" points="42 11.9 44.9 8 47.3 12.9"></polygon>
            <polygon id="Path" fill="#A0A1A3" points="275.7 53.9 278 47.1 280 33"></polygon>
            <polygon id="Path" fill="#333131" points="143.8 25 155 26.9 155.7 22"></polygon>
            <polygon id="Path" fill="#4D4E4D" points="41.8 20 45.1 22.8 47.5 19.1"></polygon>
            <polygon id="Path" fill="#C89883" points="226.5 20 236 22 238.3 17"></polygon>
            <polygon id="Path" fill="#BCBCBA" points="170.7 29 172.9 37.1 175.2 30.5"></polygon>
            <polygon id="Path" fill="#9B7B74" points="70 22.1 71.2 23.9 97.6 23"></polygon>
            <polygon id="Path" fill="#B57B63" points="236 22 239.1 25 247.8 19"></polygon>
            <polygon id="Path" fill="#747474" points="0.9 17 2.9 20.1 4.7 20"></polygon>
            <polygon id="Path" fill="#52514E" points="110.9 72.1 111 65.8 119.8 58"></polygon>
            <polygon id="Path" fill="#4F4C49" points="183.1 23.2 184.9 18 199.8 11"></polygon>
            <polygon id="Path" fill="#B3B2B3" points="3.5 15 6.2 8 6.9 10"></polygon>
            <polygon id="Path" fill="#5B5C5C" points="0.9 17 1.1 14.9 3.5 15"></polygon>
            <polygon id="Path" fill="#AF7965" points="197.9 43.1 199 61 203.5 55.4"></polygon>
            <polygon id="Path" fill="#4A4A49" points="115.9 13.9 124.1 8.8 125.8 19.1"></polygon>
            <polygon id="Path" fill="#252527" points="5.8 1.2 6.2 8 9.9 2.1"></polygon>
            <polygon id="Path" fill="#B3B4B4" points="60.5 20 62.7 18 68.1 23"></polygon>
            <polygon id="Path" fill="#F0E3D9" points="238.3 17 247.8 19 261.8 19.6"></polygon>
            <polygon id="Path" fill="#565553" points="112 72.1 119.8 58 128.8 47"></polygon>
            <polygon id="Path" fill="#2F2F2F" points="44.6 6.6 47.3 12.9 48.5 11"></polygon>
            <polygon id="Path" fill="#686868" points="115.7 27 125.8 19.1 132.7 26"></polygon>
            <polygon id="Path" fill="#2D2F2E" points="0.9 17 3.5 15 4.7 20"></polygon>
            <polygon id="Path" fill="#453730" points="199.8 11 201.1 29.6 203.1 17"></polygon>
            <polygon id="Path" fill="#8F4E3A" points="203.1 17 216.4 33.1 239.1 25"></polygon>
            <polygon id="Path" fill="#484645" points="152.5 17 165.7 17.6 199.8 11"></polygon>
            <polygon id="Path" fill="#33322F" points="130 43 155 26.9 155 33.3"></polygon>
            <polygon id="Path" fill="#F9F9F9" points="146 9 165.5 7.5 196 8.2"></polygon>
            <polygon id="Path" fill="#AE684A" points="188.9 55.2 197.9 43.1 199 61"></polygon>
            <polygon id="Path" fill="#AE7057" points="191.9 31 195.9 37.3 197 32"></polygon>
            <polygon id="Path" fill="#3E3D3B" points="170.7 29 175.2 30.5 176.5 25.1"></polygon>
            <polygon id="Path" fill="#403F3C" points="155 33.3 160.8 36.1 162.3 28"></polygon>
            <polygon id="Path" fill="#C3C2C2" points="124.1 8.8 126 7 146 9"></polygon>
            <polygon id="Path" fill="#A26A56" points="203.1 17 236 22 239.1 25"></polygon>
            <polygon id="Path" fill="#E7D2C7" points="88.1 11 92.6 14 100.9 11.7"></polygon>
            <polygon id="Path" fill="#533F37" points="275.7 53.9 277.3 35.3 280.9 24"></polygon>
            <polygon id="Path" fill="#262726" points="3.5 15 7.4 22 15.2 15"></polygon>
            <polygon id="Path" fill="#434345" points="7.4 22 15.2 15 15.7 18.8"></polygon>
            <polygon id="Path" fill="#7E7E7E" points="125.9 0.9 126 7 128.3 5"></polygon>
            <polygon id="Path" fill="#B4958C" points="183.9 40.1 183.9 43 188.9 55.2"></polygon>
            <polygon id="Path" fill="#AC6544" points="96.9 14.9 97.6 23 100.9 11.7"></polygon>
            <polygon id="Path" fill="#5E5C5D" points="123.9 5.1 124.1 8.8 126 7"></polygon>
            <polygon id="Path" fill="#767573" points="155 33.3 157.9 38.9 160.8 36.1"></polygon>
            <polygon id="Path" fill="#706862" points="158 25 165.7 17.6 176.5 25.1"></polygon>
            <polygon id="Path" fill="#959492" points="130 43 134.2 31.1 135.9 28.3"></polygon>
            <polygon id="Path" fill="#5F6465" points="47.9 15.3 62.7 18 63.9 15"></polygon>
            <polygon id="Path" fill="#9C5738" points="69.7 4.2 70 22.1 74.4 12.1"></polygon>
            <polygon id="Path" fill="#585858" points="3.5 15 7.1 13 11.8 12"></polygon>
            <polygon id="Path" fill="#404040" points="3.5 15 11.8 12 15.2 15"></polygon>
            <polygon id="Path" fill="#343636" points="42 11.9 47.3 12.9 47.5 19.1"></polygon>
            <polygon id="Path" fill="#C5ADA4" points="97.6 23 102.9 24.1 113.1 28.8"></polygon>
            <polygon id="Path" fill="#575351" points="100.9 11.7 110 1.1 115.9 13.9"></polygon>
            <polygon id="Path" fill="#8F695F" points="213.9 34.1 216.4 33.1 242.2 40.9"></polygon>
            <polygon id="Path" fill="#828485" points="15.2 15 33 15 34.9 15.9"></polygon>
            <polygon id="Path" fill="#424241" points="125.8 19.1 143.8 25 148.8 21"></polygon>
            <polygon id="Path" fill="#B46F4F" points="88.1 11 94.9 8.9 100.9 11.7"></polygon>
            <polygon id="Path" fill="#373635" points="124 81.8 126 76.2 133 73.9"></polygon>
            <polygon id="Path" fill="#71706C" points="155 26.9 155.7 22 158 25"></polygon>
            <polygon id="Path" fill="#3A3733" points="155.7 22 158 25 165.7 17.6"></polygon>
            <polygon id="Path" fill="#D5D3D4" points="194.1 6.2 196 8.2 199.8 11"></polygon>
            <polygon id="Path" fill="#454240" points="175.2 30.5 176.5 25.1 183.1 23.2"></polygon>
            <polygon id="Path" fill="#595755" points="275.7 53.9 280 33 280.9 24"></polygon>
            <polygon id="Path" fill="#615F60" points="122.9 2 123.9 5.1 125.9 0.9"></polygon>
            <polygon id="Path" fill="#4A4A49" points="124.1 8.8 125.8 19.1 152.5 17"></polygon>
            <polygon id="Path" fill="#444444" points="143 62 146 54.9 148 53"></polygon>
            <polygon id="Path" fill="#939393" points="5.8 1.2 9.9 2.1 10.8 0.1"></polygon>
            <polygon id="Path" fill="#383432" points="115.7 27 115.9 13.9 125.8 19.1"></polygon>
            <polygon id="Path" fill="#E4E3E4" points="110 1.1 122.9 2 125.9 0.9"></polygon>
            <polygon id="Path" fill="#423F3D" points="155 26.9 158 25 176.5 25.1"></polygon>
            <polygon id="Path" fill="#E0E0E0" points="194.1 6.2 199.8 11 200.8 10"></polygon>
            <polygon id="Path" fill="#8B4E39" points="239.1 25 242.2 40.9 277.3 35.3"></polygon>
            <polygon id="Path" fill="#C5A69A" points="203.1 17 212 17 226.5 20"></polygon>
            <polygon id="Path" fill="#A05B3E" points="70 22.1 79.3 14 97.6 23"></polygon>
            <polygon id="Path" fill="#C5AEA6" points="175.2 30.5 183.9 40.1 183.9 43"></polygon>
            <polygon id="Path" fill="#888687" points="6.2 8 6.9 10 12 9"></polygon>
            <polygon id="Path" fill="#958D86" points="165.7 17.6 183.1 23.2 184.9 18"></polygon>
            <polygon id="Path" fill="#DBDBDB" points="44.6 6.6 67.6 6.9 69.7 4.2"></polygon>
            <polygon id="Path" fill="#D7B2A5" points="94.5 4.9 94.9 8.9 110 1.1"></polygon>
            <polygon id="Path" fill="#474848" points="44.6 6.6 67 11.1 67.6 6.9"></polygon>
            <polygon id="Path" fill="#464644" points="112 72.1 119.7 84 124 81.8"></polygon>
            <polygon id="Path" fill="#B08170" points="188.9 55.2 190.1 63.1 200 63"></polygon>
            <polygon id="Path" fill="#272624" points="155 26.9 155 33.3 162.3 28"></polygon>
            <polygon id="Path" fill="#5B5A59" points="124.1 8.8 152.5 17 153.3 12.7"></polygon>
            <polygon id="Path" fill="#545454" points="110 1.1 115.9 13.9 124.1 8.8"></polygon>
            <polygon id="Path" fill="#DCC6BC" points="195.9 37.3 197.9 43.1 203.5 55.4"></polygon>
            <polygon id="Path" fill="#AA613F" points="100.9 11.7 102.9 24.1 115.9 13.9"></polygon>
            <polygon id="Path" fill="#383736" points="128.8 47 143 62 146 54.9"></polygon>
            <polygon id="Path" fill="#8E8E8E" points="126 7 157.9 4.9 165.5 7.5"></polygon>
            <polygon id="Path" fill="#363636" points="44.6 6.6 57.2 11.9 67 11.1"></polygon>
            <polygon id="Path" fill="#9F9F9F" points="7.4 22 41.8 20 45.1 22.8"></polygon>
            <polygon id="Path" fill="#383A3C" points="67 11.1 67.6 6.9 69.7 4.2"></polygon>
            <polygon id="Path" fill="#3E3029" points="175.2 30.5 186 31.9 191.9 31"></polygon>
            <polygon id="Path" fill="#8C4C37" points="201.1 29.6 203.1 17 216.4 33.1"></polygon>
            <polygon id="Path" fill="#3D3B3A" points="183.1 23.2 199.8 11 201.1 29.6"></polygon>
            <polygon id="Path" fill="#89827C" points="148.8 21 152.5 17 165.7 17.6"></polygon>
            <polygon id="Path" fill="#373532" points="130 43 148 53 155 33.3"></polygon>
            <polygon id="Path" fill="#5B5A58" points="132.7 26 134.2 31.1 135.9 28.3"></polygon>
            <polygon id="Path" fill="#1A1918" points="132.7 26 135.9 28.3 155 26.9"></polygon>
            <polygon id="Path" fill="#333231" points="132.7 26 143.8 25 155 26.9"></polygon>
            <polygon id="Path" fill="#73706E" points="199.8 11 200.8 10 203.1 17"></polygon>
            <polygon id="Path" fill="#333232" points="183.1 23.2 191.9 31 201.1 29.6"></polygon>
            <polygon id="Path" fill="#373633" points="130 43 146 54.9 148 53"></polygon>
            <polygon id="Path" fill="#C07F63" points="69.7 4.2 88.1 11 94.9 8.9"></polygon>
            <polygon id="Path" fill="#A09D9E" points="62.7 18 68.1 23 71.2 23.9"></polygon>
            <polygon id="Path" fill="#3F3E3C" points="112 72.1 124 81.8 126 76.2"></polygon>
            <polygon id="Path" fill="#A15838" points="102.9 24.1 115.7 27 115.9 13.9"></polygon>
            <polygon id="Path" fill="#E7E7E7" points="126 7 146 9 165.5 7.5"></polygon>
            <polygon id="Path" fill="#E9D5C9" points="74.4 12.1 79.3 14 88.1 11"></polygon>
            <polygon id="Path" fill="#393834" points="130 43 135.9 28.3 155 26.9"></polygon>
            <polygon id="Path" fill="#3C3B38" points="112 72.1 128.8 47 143 62"></polygon>
            <polygon id="Path" fill="#E1D1CA" points="199 61 200 63 203.5 55.4"></polygon>
            <polygon id="Path" fill="#55504C" points="143.8 25 148.8 21 155.7 22"></polygon>
            <polygon id="Path" fill="#B57F67" points="239.1 25 247.8 19 279 23.1"></polygon>
            <polygon id="Path" fill="#939393" points="47.3 12.9 48.5 11 57.2 11.9"></polygon>
            <polygon id="Path" fill="#3A3937" points="112 72.1 133 73.9 143 62"></polygon>
            <polygon id="Path" fill="#3A3F41" points="47.5 19.1 47.9 15.3 62.7 18"></polygon>
            <polygon id="Path" fill="#6D6B6B" points="146 9 196 8.2 199.8 11"></polygon>
            <polygon id="Path" fill="#686868" points="3.5 15 6.9 10 7.1 13"></polygon>
            <polygon id="Path" fill="#8D6153" points="277.3 35.3 279 23.1 280.9 24"></polygon>
            <polygon id="Path" fill="#CDB9B2" points="195.9 37.3 197 32 201.1 29.6"></polygon>
            <polygon id="Path" fill="#AF9C98" points="213.9 34.1 271.7 54 275.7 53.9"></polygon>
            <polygon id="Path" fill="#AC6744" points="183.9 40.1 186 31.9 191.9 31"></polygon>
            <polygon id="Path" fill="#C28F78" points="236 22 238.3 17 247.8 19"></polygon>
            <polygon id="Path" fill="#EFE4DC" points="261.8 19.6 279 23.1 279.1 22.1"></polygon>
            <polygon id="Path" fill="#60605F" points="162.3 28 170.7 29 176.5 25.1"></polygon>
            <polygon id="Path" fill="#535355" points="110 1.1 123.9 5.1 124.1 8.8"></polygon>
            <polygon id="Path" fill="#BFBFC0" points="7.4 22 15.7 18.8 41.8 20"></polygon>
            <polygon id="Path" fill="#D8D8D8" points="157.9 4.9 186.7 4.7 194.1 6.2"></polygon>
            <polygon id="Path" fill="#2A2A2A" points="34.9 15.9 42 11.9 47.5 19.1"></polygon>
            <polygon id="Path" fill="#8F8780" points="165.7 17.6 176.5 25.1 183.1 23.2"></polygon>
            <polygon id="Path" fill="#717779" points="62.7 18 63.9 15 67 11.1"></polygon>
            <polygon id="Path" fill="#8C6B65" points="213.9 34.1 242.2 40.9 275.7 53.9"></polygon>
            <polygon id="Path" fill="#D8A896" points="69.7 4.2 94.5 4.9 94.9 8.9"></polygon>
            <polygon id="Path" fill="#323536" points="15.7 18.8 34.9 15.9 47.5 19.1"></polygon>
            <polygon id="Path" fill="#A66E56" points="175.2 30.5 183.9 40.1 186 31.9"></polygon>
            <polygon id="Path" fill="#C29383" points="203.1 17 226.5 20 236 22"></polygon>
            <polygon id="Path" fill="#555454" points="152.5 17 153.3 12.7 199.8 11"></polygon>
            <polygon id="Path" fill="#3E3E3E" points="125.8 19.1 148.8 21 152.5 17"></polygon>
            <polygon id="Path" fill="#B07E68" points="188.9 55.2 199 61 200 63"></polygon>
            <polygon id="Path" fill="#D8D8D7" points="165.5 7.5 194.1 6.2 196 8.2"></polygon>
            <polygon id="Path" fill="#AD603B" points="79.3 14 96.9 14.9 97.6 23"></polygon>
            <polygon id="Path" fill="#323132" points="44.6 6.6 48.5 11 57.2 11.9"></polygon>
            <polygon id="Path" fill="#535051" points="9.9 2.1 10.8 0.1 12 9"></polygon>
            <polygon id="Path" fill="#AE7358" points="79.3 14 92.6 14 96.9 14.9"></polygon>
            <polygon id="Path" fill="#3A3936" points="128.8 47 130 43 146 54.9"></polygon>
            <polygon id="Path" fill="#B6B4B5" points="10.8 0.1 12 9 15.2 15"></polygon>
        </g>
    </g>
</svg>